<?xml version="1.0" encoding="utf-8"?>
<!-- Generator: Adobe Illustrator 16.0.0, SVG Export Plug-In . SVG Version: 6.00 Build 0)  -->
<!DOCTYPE svg PUBLIC "-//W3C//DTD SVG 1.1//EN" "http://www.w3.org/Graphics/SVG/1.1/DTD/svg11.dtd">
<svg version="1.1" id="Layer_2" xmlns="http://www.w3.org/2000/svg" xmlns:xlink="http://www.w3.org/1999/xlink" x="0px" y="0px"
	 width="100px" height="100px" viewBox="0 0 100 100" enable-background="new 0 0 100 100" xml:space="preserve">
<path fill="none" stroke="#000000" stroke-width="2" stroke-miterlimit="10" d="M24.012,34.229v49.518
	c0,5.123,3.683,9.274,8.225,9.274h35.528c4.541,0,8.223-4.151,8.223-9.272v-49.52 M37.425,39.998V85.69 M49.999,39.998V85.69
	 M62.575,39.998V85.69 M60.398,18.458v-4.564c0-3.847-2.246-6.978-5.007-6.978H44.607c-2.76,0-5.007,3.131-5.007,6.978v4.564
	 M18.999,26.708c0-4.557,3.872-8.25,8.646-8.25H39.6h20.798h11.956c4.774,0,8.645,3.694,8.645,8.25v2.25h-62V26.708z"/>
</svg>
