<svg viewBox="0 0 100 100">
    <path  d="M50.62 85.81H12.5c-3.21 0-5.81-2.6-5.81-5.81s2.6-5.81 5.81-5.81h38.05l-1.29 6.55c-.36 1.81.17 3.69 1.36 5.07zM12.5 44.19c-3.21 0-5.81 2.6-5.81 5.81s2.6 5.81 5.81 5.81h28.69c-.05-.78.05-1.57.32-2.33.76-2.17 2.66-3.69 4.95-3.96l12.44-1.51 2.01-3.82H12.5zM93.31 21c0-3.208-2.6-5.81-5.81-5.81h-75c-3.208 0-5.81 2.6-5.81 5.81s2.6 5.81 5.81 5.81h75c3.21 0 5.81-2.602 5.81-5.81zM82.957 85.017c1.39 0 2.516-1.118 2.516-2.498 0-.22-.03-.43-.08-.634L83.325 68.04l10.52-9.723c.7-.648.97-1.635.696-2.545-.273-.91-1.046-1.587-1.99-1.745l-14.173-2.374-6.065-12.936c-.403-.862-1.265-1.422-2.222-1.442-.957-.025-1.846.498-2.29 1.34l-6.653 12.647L46.88 52.99c-.95.115-1.754.756-2.07 1.653-.317.897-.093 1.895.577 2.573l10.062 10.19-2.756 14.004c-.184.933.182 1.888.944 2.464.76.577 1.787.673 2.643.25l12.874-6.35L81.722 84.7c.382.21.802.314 1.222.314.004.003.01.003.013.003z"/>
</svg>
